<svg width="11" height="13" viewBox="0 0 11 13" fill="none" xmlns="http://www.w3.org/2000/svg">
<path d="M6.32894 3.30736C7.16729 3.30736 7.92726 3.50421 8.60902 3.89796C9.30202 4.28044 9.84414 4.82604 10.2354 5.53477C10.6264 6.23223 10.8221 7.04782 10.8221 7.98153C10.8221 8.91524 10.6264 9.73645 10.2354 10.4452C9.84414 11.1426 9.30202 11.6882 8.60902 12.082C7.92726 12.4644 7.16729 12.6557 6.32894 12.6557C5.08828 12.6557 4.14385 12.262 3.49566 11.4745V12.5207H0.997559V0H3.61298V4.40419C4.27241 3.67296 5.17773 3.30736 6.32894 3.30736ZM5.87628 10.4958C6.54696 10.4958 7.09461 10.2708 7.51924 9.82082C7.95529 9.35959 8.17314 8.74649 8.17314 7.98153C8.17314 7.21657 7.95529 6.60909 7.51924 6.15911C7.09461 5.69787 6.54696 5.46727 5.87628 5.46727C5.20576 5.46727 4.6524 5.69787 4.21653 6.15911C3.7919 6.60909 3.57941 7.21657 3.57941 7.98153C3.57941 8.74649 3.7919 9.35959 4.21653 9.82082C4.6524 10.2708 5.20576 10.4958 5.87628 10.4958Z" fill="#FFD22E"/>
</svg>
