<svg width="11" height="10" viewBox="0 0 11 10" fill="none" xmlns="http://www.w3.org/2000/svg">
<path d="M10.2564 5.01529C10.2564 5.04904 10.2396 5.28528 10.206 5.724H3.38257C3.50543 6.28649 3.79612 6.73084 4.25432 7.05707C4.71252 7.38331 5.28267 7.54644 5.96443 7.54644C6.43387 7.54644 6.84742 7.47894 7.20508 7.34394C7.57382 7.19769 7.9147 6.97271 8.22772 6.66897L9.61927 8.18765C8.76984 9.16636 7.52918 9.65571 5.89729 9.65571C4.88019 9.65571 3.98041 9.45884 3.19812 9.06512C2.41566 8.66013 1.81211 8.10328 1.38748 7.39456C0.962681 6.68583 0.750366 5.8815 0.750366 4.98154C0.750366 4.09283 0.957143 3.29412 1.3707 2.58539C1.79533 1.86542 2.37101 1.30858 3.09758 0.914835C3.83523 0.509866 4.65663 0.307373 5.56195 0.307373C6.44494 0.307373 7.24419 0.498605 7.95952 0.881086C8.67484 1.26358 9.23357 1.81481 9.63605 2.53478C10.0496 3.24349 10.2564 4.07032 10.2564 5.01529ZM5.57873 2.29854C4.98643 2.29854 4.48896 2.46728 4.08665 2.80475C3.68434 3.14224 3.43846 3.60348 3.349 4.18845H7.79185C7.70239 3.61472 7.45651 3.15912 7.0542 2.82163C6.65172 2.4729 6.15996 2.29854 5.57873 2.29854Z" fill="#FFD22E"/>
</svg>
