<svg width="6" height="8" viewBox="0 0 6 8" fill="none" xmlns="http://www.w3.org/2000/svg">
<path d="M2.95381 2.76397C3.59881 2.76397 4.10988 2.95374 4.48667 3.33293C4.86985 3.70587 5.06152 4.25541 5.06152 4.98187V7.9227H4.14177V5.0879C4.14177 4.59289 4.02361 4.22012 3.78729 3.96941C3.55098 3.7187 3.21245 3.59326 2.77171 3.59326C2.27356 3.59326 1.88082 3.74115 1.59348 4.03677C1.30598 4.32614 1.16231 4.74399 1.16231 5.29032V7.9227H0.242554V0.768066H1.16231V3.53552C1.35398 3.29123 1.60305 3.10146 1.90952 2.96657C2.22254 2.83151 2.57063 2.76397 2.95381 2.76397Z" fill="black"/>
</svg>
