<svg width="6" height="6" viewBox="0 0 6 6" fill="none" xmlns="http://www.w3.org/2000/svg">
<path d="M2.96626 5.98079C2.46174 5.98079 2.00825 5.86835 1.60594 5.6433C1.20346 5.41826 0.887425 5.10981 0.657487 4.71762C0.433926 4.31901 0.322144 3.86908 0.322144 3.36766C0.322144 2.86624 0.433926 2.41952 0.657487 2.02733C0.887425 1.6289 1.20346 1.32028 1.60594 1.10165C2.00825 0.876769 2.46174 0.76416 2.96626 0.76416C3.47079 0.76416 3.9211 0.876769 4.31703 1.10165C4.7195 1.32028 5.03235 1.6289 5.25591 2.02733C5.48585 2.41952 5.60082 2.86624 5.60082 3.36766C5.60082 3.86908 5.48585 4.31901 5.25591 4.71762C5.03235 5.10981 4.7195 5.41826 4.31703 5.6433C3.9211 5.86835 3.47079 5.98079 2.96626 5.98079ZM2.96626 5.17075C3.29204 5.17075 3.58257 5.09697 3.83802 4.94908C4.10001 4.79477 4.30427 4.58255 4.45113 4.3126C4.59816 4.03623 4.6715 3.72119 4.6715 3.36766C4.6715 3.01414 4.59816 2.70231 4.45113 2.43235C4.30427 2.15598 4.10001 1.94376 3.83802 1.79604C3.58257 1.64815 3.29204 1.5742 2.96626 1.5742C2.64049 1.5742 2.34678 1.64815 2.08495 1.79604C1.8295 1.94376 1.62507 2.15598 1.47184 2.43235C1.32481 2.70231 1.25147 3.01414 1.25147 3.36766C1.25147 3.72119 1.32481 4.03623 1.47184 4.3126C1.62507 4.58255 1.8295 4.79477 2.08495 4.94908C2.34678 5.09697 2.64049 5.17075 2.96626 5.17075Z" fill="black"/>
</svg>
