<svg width="6" height="7" viewBox="0 0 6 7" fill="none" xmlns="http://www.w3.org/2000/svg">
<path d="M2.97347 7.00015C2.46878 7.00015 1.9802 6.92299 1.50757 6.76868C1.04149 6.60813 0.674089 6.40232 0.405884 6.15161L0.760358 5.39948C1.01581 5.63095 1.34158 5.82054 1.73751 5.96844C2.13999 6.10991 2.55186 6.18065 2.97347 6.18065C3.52902 6.18065 3.94425 6.08729 4.21883 5.9009C4.49341 5.7081 4.63087 5.45418 4.63087 5.13915C4.63087 4.90785 4.55417 4.7213 4.40094 4.57999C4.25391 4.4321 4.06878 4.31966 3.84522 4.2425C3.62804 4.16535 3.31838 4.07857 2.9159 3.98217C2.41138 3.85994 2.00269 3.73787 1.68968 3.61564C1.38304 3.49358 1.11802 3.30719 0.894457 3.05648C0.677275 2.79936 0.568856 2.45545 0.568856 2.0246C0.568856 1.66466 0.661335 1.34 0.846628 1.0508C1.0383 0.761527 1.32564 0.530097 1.70881 0.356542C2.09199 0.182969 2.56781 0.0961914 3.13628 0.0961914C3.53221 0.0961914 3.92192 0.147617 4.3051 0.250467C4.68827 0.353335 5.01723 0.501177 5.29182 0.69403L4.97561 1.46544C4.69465 1.28547 4.39456 1.15044 4.07516 1.06044C3.75576 0.964021 3.44292 0.915803 3.13628 0.915803C2.59349 0.915803 2.18463 1.01545 1.91005 1.21471C1.64184 1.41395 1.50757 1.67107 1.50757 1.98611C1.50757 2.21757 1.58427 2.40717 1.73751 2.55506C1.89091 2.69637 2.07923 2.80898 2.30279 2.89255C2.53273 2.9697 2.84256 3.05327 3.23211 3.14326C3.73663 3.26532 4.14213 3.38755 4.44877 3.50962C4.75541 3.63168 5.01723 3.81824 5.23442 4.06895C5.45781 4.31966 5.56959 4.65714 5.56959 5.08141C5.56959 5.43494 5.47392 5.75959 5.28225 6.05521C5.09058 6.34442 4.80005 6.57588 4.4105 6.74943C4.02078 6.91657 3.54177 7.00015 2.97347 7.00015Z" fill="black"/>
</svg>
