<svg width="6" height="6" viewBox="0 0 6 6" fill="none" xmlns="http://www.w3.org/2000/svg">
<path d="M3.04816 5.98079C2.53071 5.98079 2.06781 5.86835 1.65896 5.6433C1.25665 5.41826 0.940445 5.10981 0.710507 4.71762C0.480568 4.31901 0.365601 3.86908 0.365601 3.36766C0.365601 2.86624 0.480568 2.41952 0.710507 2.02733C0.940445 1.6289 1.25665 1.32028 1.65896 1.10165C2.06781 0.876769 2.53071 0.76416 3.04816 0.76416C3.50803 0.76416 3.91672 0.857522 4.27438 1.04391C4.63842 1.2303 4.91938 1.50025 5.11743 1.85378L4.41805 2.30708C4.25844 2.06279 4.06039 1.87961 3.82407 1.75738C3.58775 1.63531 3.32593 1.5742 3.03859 1.5742C2.70644 1.5742 2.40618 1.64815 2.13797 1.79604C1.87614 1.94376 1.66853 2.15598 1.51529 2.43235C1.36843 2.70231 1.29492 3.01414 1.29492 3.36766C1.29492 3.72761 1.36843 4.04585 1.51529 4.32222C1.66853 4.59235 1.87614 4.80119 2.13797 4.94908C2.40618 5.09697 2.70644 5.17075 3.03859 5.17075C3.32593 5.17075 3.58775 5.10981 3.82407 4.98757C4.06039 4.86551 4.25844 4.68233 4.41805 4.43804L5.11743 4.88155C4.91938 5.23508 4.63842 5.50824 4.27438 5.70121C3.91672 5.8876 3.50803 5.98079 3.04816 5.98079Z" fill="black"/>
</svg>
