<svg width="10" height="10" viewBox="0 0 10 10" fill="none" xmlns="http://www.w3.org/2000/svg">
<path d="M5.05431 9.65571C4.10418 9.65571 3.24921 9.45884 2.48924 9.06512C1.74035 8.66013 1.15358 8.10328 0.728787 7.39456C0.304156 6.68583 0.0916748 5.8815 0.0916748 4.98154C0.0916748 4.08159 0.304156 3.27724 0.728787 2.56853C1.15358 1.8598 1.74035 1.30858 2.48924 0.914835C3.24921 0.509866 4.10418 0.307373 5.05431 0.307373C6.00428 0.307373 6.85371 0.509866 7.6026 0.914835C8.35149 1.30858 8.93825 1.8598 9.36305 2.56853C9.78768 3.27724 10 4.08159 10 4.98154C10 5.8815 9.78768 6.68583 9.36305 7.39456C8.93825 8.10328 8.35149 8.66013 7.6026 9.06512C6.85371 9.45884 6.00428 9.65571 5.05431 9.65571ZM5.05431 7.4958C5.72482 7.4958 6.27265 7.27082 6.69728 6.82083C7.13315 6.35961 7.35118 5.7465 7.35118 4.98154C7.35118 4.21658 7.13315 3.6091 6.69728 3.15912C6.27265 2.69788 5.72482 2.46728 5.05431 2.46728C4.38363 2.46728 3.83043 2.69788 3.39456 3.15912C2.95868 3.6091 2.74066 4.21658 2.74066 4.98154C2.74066 5.7465 2.95868 6.35961 3.39456 6.82083C3.83043 7.27082 4.38363 7.4958 5.05431 7.4958Z" fill="#FFD22E"/>
</svg>
